<svg width="157" height="52" viewBox="0 0 157 52" fill="none" xmlns="http://www.w3.org/2000/svg">
<path d="M6.84557 37.1831C6.84557 41.7355 6.83614 46.288 6.85814 50.8404C6.86128 51.3784 6.67898 51.5249 6.12893 51.5249C2.65258 51.5159 0.0626145 49.1187 0.0374691 45.5795C-0.0285374 36.5285 0.015467 27.4775 0.0028943 18.4264C0.0028943 17.9661 0.150623 17.8376 0.631528 17.8286C4.07015 17.7569 6.78585 20.3036 6.80471 23.6903C6.82357 27.5911 6.81099 31.4948 6.81099 35.3986C6.81099 35.9935 6.81099 36.5913 6.81099 37.1861C6.82357 37.1831 6.83614 37.1831 6.84557 37.1831ZM4.53848 38.2293C4.23674 39.2546 4.18959 40.2769 4.54791 41.4755C4.89052 40.2709 4.8748 39.2486 4.53848 38.2293ZM2.91032 26.3835C2.44513 27.4566 2.3477 29.0677 2.67459 29.809C2.94176 28.6911 3.02348 27.609 2.91032 26.3835Z" fill="#62271A"/>
<path d="M156.002 20.6023C155.348 20.9879 154.682 20.982 154.059 21.0388C149.973 21.4034 145.874 21.5349 141.776 21.5469C137.077 21.5619 132.375 21.5619 127.679 21.4811C125.092 21.4363 122.496 21.3855 119.921 21.0896C118.375 20.9132 116.85 21.1763 115.32 21.257C107.465 21.6844 99.6039 21.6276 91.746 21.4811C89.1026 21.4333 86.4529 21.3616 83.8189 21.0716C82.2474 20.8983 80.6946 21.1972 79.1325 21.2719C70.7371 21.6695 62.3385 21.6665 53.9369 21.4094C51.4035 21.3317 48.8732 21.242 46.3587 20.9072C46.057 20.8684 45.7426 20.8624 45.4629 20.5485C46.1355 20.2018 46.849 20.1958 47.5311 20.139C51.6455 19.7863 55.7725 19.6578 59.9026 19.6369C65.686 19.607 71.482 19.4246 77.2434 19.861C82.1845 20.2347 87.0753 19.7893 91.9912 19.7026C96.6619 19.6219 101.336 19.6309 106.007 19.6458C110.137 19.6608 114.257 19.9119 118.378 20.1151C120.525 20.2197 122.694 19.8939 124.853 19.8072C131.601 19.5412 138.353 19.5651 145.101 19.7026C148.398 19.7714 151.705 19.8312 154.983 20.2735C155.313 20.3154 155.637 20.3483 156.002 20.6023Z" fill="#62271A"/>
<path d="M62.7465 45.7557C62.6427 48.3174 61.6967 50.4695 59.0533 51.4709C56.2055 52.55 53.5464 51.9342 51.2802 50.0271C49.1743 48.2576 48.4608 45.8514 48.4262 43.2927C48.3288 36.059 52.0031 30.849 58.2737 27.1007C58.9935 26.6702 59.7919 26.3594 60.6468 26.2248C60.8794 26.189 61.1372 26.1531 61.2849 26.3325C61.4735 26.5596 61.31 26.7958 61.1623 26.999C60.9832 27.2441 60.8009 27.4863 60.5997 27.7134C57.3214 31.4169 55.3663 35.6734 54.7565 40.4769C54.5742 41.9087 54.5805 43.3465 55.0646 44.7394C55.448 45.8394 56.1395 46.6674 57.4502 46.772C58.7421 46.8736 59.6002 46.222 60.2036 45.1997C60.6625 44.4196 60.7977 43.5766 60.7663 42.6949C60.7568 42.4378 60.6311 42.0582 60.9266 41.9506C61.2629 41.828 61.4703 42.1867 61.6621 42.4049C62.495 43.3794 62.7653 44.5212 62.7465 45.7557Z" fill="#62271A"/>
<path d="M129.96 42.3781C130.318 35.6227 133.879 30.5113 140.119 26.9782C140.804 26.5896 141.552 26.3026 142.353 26.213C142.91 26.1502 143.124 26.4162 142.828 26.8885C142.583 27.2831 142.275 27.6418 141.967 27.9975C138.745 31.7129 136.881 35.9724 136.325 40.752C136.174 42.0523 136.227 43.3495 136.617 44.6169C137.023 45.9321 137.915 46.7093 139.075 46.787C140.295 46.8677 141.329 46.2131 141.926 44.9666C142.297 44.1895 142.445 43.3705 142.413 42.5156C142.407 42.3183 142.281 42.0403 142.561 41.9447C142.809 41.861 142.966 42.1031 143.117 42.2495C143.718 42.8264 144.035 43.5498 144.195 44.33C145.009 48.2696 142.495 52.0538 137.966 51.9612C134.624 51.8924 131.783 49.8957 130.633 46.6973C130.155 45.3732 130.045 44.0012 129.96 42.3781ZM132.83 42.0463C132.569 43.0088 132.537 43.9743 132.839 44.9368C133.119 43.9802 133.119 43.0177 132.83 42.0463Z" fill="#62271A"/>
<path d="M92.6443 41.4636C92.6443 38.4028 92.6443 35.3389 92.6443 32.2781C92.6443 29.9526 91.8648 28.0844 89.3912 27.1757C89.0643 27.0561 88.6431 26.9156 88.6965 26.4613C88.7562 25.9531 89.2466 25.9262 89.6143 25.9143C91.2896 25.8515 92.9807 25.711 94.6402 26.0338C97.6011 26.6107 99.4273 28.8018 99.465 31.9194C99.5184 36.5525 99.531 41.1886 99.4619 45.8218C99.4084 49.3459 97.0353 51.6386 93.5056 51.8239C92.8361 51.8598 92.5312 51.7193 92.6475 51.0527C92.6506 51.0258 92.6475 50.9989 92.6475 50.972C92.6443 47.8035 92.6443 44.6351 92.6443 41.4636ZM95.4826 38.7943C95.8126 37.5569 95.8252 36.4838 95.4795 35.2612C95.1369 36.4868 95.1243 37.5598 95.4826 38.7943ZM94.3228 44.4826C94.6182 43.4514 94.6811 42.4142 94.3134 41.1946C93.9833 42.4142 93.999 43.4454 94.3228 44.4826Z" fill="#62271A"/>
<path d="M87.3923 36.1219C87.3923 39.1559 87.3891 42.1898 87.3954 45.2238C87.3985 45.983 87.4803 46.7333 87.6751 47.4716C87.9989 48.7001 88.7564 49.5968 89.9288 50.1827C90.2557 50.3471 90.5888 50.4966 90.922 50.652C91.1955 50.7805 91.4061 50.9569 91.3621 51.2767C91.3181 51.6055 91.0258 51.752 90.7523 51.758C88.5427 51.8178 86.2953 52.1615 84.1736 51.2947C81.6748 50.2754 80.6564 48.2727 80.6219 45.8365C80.5527 41.1795 80.5622 36.5195 80.6156 31.8595C80.6533 28.4608 82.7749 26.3057 86.3236 25.8962C87.3545 25.7766 87.3954 25.8095 87.3954 26.772C87.3922 29.8896 87.3923 33.0043 87.3923 36.1219ZM84.3654 47.639C84.6546 46.3776 84.7143 45.3374 84.3465 44.1058C84.0102 45.3433 84.0165 46.3865 84.3654 47.639ZM82.9227 38.1665C83.1395 37.2249 83.2621 36.2833 82.8787 35.3567C82.6335 36.2953 82.6272 37.2309 82.9227 38.1665Z" fill="#62271A"/>
<path d="M145.242 36.2922C145.242 33.1775 145.264 30.0659 145.223 26.9512C145.214 26.2488 145.453 26.0963 146.141 26.1202C149.325 26.2279 151.859 28.4518 151.975 31.5096C152.098 34.7558 152.01 38.005 152.035 41.2541C152.047 42.931 151.975 44.6079 152.123 46.2848C152.289 48.1769 153.176 49.5549 155.024 50.347C155.439 50.5263 156.108 50.619 155.986 51.2019C155.854 51.8386 155.165 51.7698 154.64 51.7758C153.389 51.7878 152.123 51.8744 150.887 51.7339C147.288 51.3274 145.274 49.0766 145.239 45.5495C145.223 44.0071 145.236 42.4617 145.236 40.9193C145.242 39.377 145.242 37.8346 145.242 36.2922ZM148.797 33.3718C148.571 34.4569 148.502 35.4941 148.838 36.6061C149.234 35.4612 149.218 34.2327 148.797 33.3718Z" fill="#62271A"/>
<path d="M70.4263 38.2502C70.5425 41.2991 70.3351 43.8727 70.5551 46.4404C70.7123 48.2727 71.6458 49.5789 73.4248 50.3531C73.846 50.5354 74.5784 50.6102 74.3835 51.2767C74.2169 51.8387 73.5631 51.7759 73.0665 51.7819C71.8124 51.7939 70.5488 51.8716 69.3104 51.7401C65.6958 51.3604 63.659 49.0678 63.637 45.3972C63.6119 41.2244 63.6307 37.0545 63.6307 32.8817C63.6307 30.876 63.659 28.8704 63.615 26.8676C63.5993 26.228 63.8287 26.1114 64.4417 26.1234C67.7231 26.1801 70.2942 28.4877 70.4137 31.6592C70.4954 34.0086 70.4263 36.367 70.4263 38.2502ZM68.0374 35.007C68.5246 33.9967 68.4995 32.6456 68.05 31.8176C67.9934 32.3945 67.9054 32.9027 67.9054 33.4078C67.9054 33.9429 67.9903 34.4749 68.0374 35.007ZM67.0191 45.7469C67.2422 44.7814 67.3019 43.8279 67.0002 42.8893C66.7236 43.8458 66.7142 44.8023 67.0191 45.7469Z" fill="#62271A"/>
<path d="M112 49.0046C111.944 49.7071 111.837 50.3258 111.865 50.9386C111.887 51.4318 111.714 51.5334 111.249 51.5185C110.337 51.4916 109.426 51.4886 108.514 51.5185C108.024 51.5364 107.886 51.369 107.889 50.9147C107.911 49.1541 107.898 47.3935 107.898 45.6329C107.898 39.4036 107.911 33.1743 107.879 26.945C107.876 26.2545 108.074 26.0901 108.778 26.114C112.157 26.2366 114.65 28.6577 114.681 32.0863C114.735 38.3425 114.691 44.5987 114.706 50.8549C114.706 51.3361 114.574 51.5095 114.04 51.5185C112.437 51.5454 112.44 51.5663 112.343 50.0658C112.324 49.731 112.336 49.3753 112 49.0046ZM112.085 33.1354C111.689 34.4716 111.714 35.5626 112.123 36.3936C112.402 35.3354 112.406 34.3012 112.085 33.1354ZM110.46 40.4737C110.215 41.4362 110.117 42.3867 110.495 43.3283C110.721 42.3718 110.768 41.4183 110.46 40.4737Z" fill="#62271A"/>
<path d="M32.9619 36.4055C32.9619 33.261 32.9933 30.1194 32.9398 26.9749C32.9273 26.2007 33.2133 26.0901 33.9111 26.123C37.4283 26.2784 39.7731 28.7623 39.7888 32.4629C39.8108 37.5025 39.7951 42.5422 39.7919 47.5818C39.7919 48.6669 39.7637 49.7519 39.8045 50.834C39.8234 51.372 39.6348 51.5215 39.0785 51.5215C35.7278 51.5185 33.0781 49.1332 33.0121 45.9139C32.9493 42.7454 32.9996 39.574 32.9996 36.4055C32.987 36.4055 32.9744 36.4055 32.9619 36.4055ZM38.0192 39.6158C38.1575 38.5547 38.0098 37.5324 37.5132 36.5699C37.3591 37.6281 37.554 38.6354 38.0192 39.6158ZM36.281 47.6804C36.4696 46.6701 36.4979 45.6658 36.1113 44.503C35.7938 45.6897 35.9007 46.6881 36.281 47.6804ZM35.8536 29.5634C35.4072 30.493 35.2626 31.4466 35.4167 32.6183C35.9353 31.5273 36.0422 30.5588 35.8536 29.5634Z" fill="#62271A"/>
<path d="M23.3695 49.2799C23.3695 49.9555 23.3789 50.634 23.3664 51.3095C23.3632 51.5218 23.3349 51.7728 23.0803 51.8536C22.8132 51.9402 22.6466 51.737 22.5366 51.5546C21.3202 49.5998 19.3305 48.5536 17.3598 47.4506C15.235 46.2579 12.9342 45.3223 11.0797 43.7202C9.31955 42.2017 8.48975 40.2648 8.40489 38.0349C8.35774 36.7914 8.39546 35.545 8.3986 34.3015C8.3986 34.0594 8.36717 33.7545 8.64691 33.6708C8.94551 33.5811 9.08381 33.883 9.20639 34.0803C10.2342 35.7183 11.7838 36.7884 13.4905 37.7031C15.0747 38.552 16.618 39.4786 18.2304 40.2767C21.8388 42.0642 23.5549 44.856 23.3884 48.712C23.3789 48.9003 23.3884 49.0916 23.3884 49.2799C23.3758 49.2799 23.3726 49.2799 23.3695 49.2799ZM16.1496 42.5036C15.301 41.6786 14.3235 41.0479 13.1856 40.6563C14.0217 41.4963 15.0181 42.1001 16.1496 42.5036Z" fill="#62271A"/>
<path d="M21.4169 21.7773C22.033 21.6129 22.6522 21.4485 23.2745 21.2811C23.526 23.8427 22.0298 26.1832 19.3864 27.1846C17.5697 27.875 15.6964 28.434 13.8419 29.0318C12.1226 29.5848 10.4881 30.2514 9.40059 31.737C9.27173 31.9133 9.11771 32.1136 8.85683 32.0598C8.62423 32.012 8.58023 31.7788 8.58337 31.6025C8.61795 29.7672 8.34449 27.9109 8.78139 26.0995C9.33773 23.7919 10.9062 22.3422 13.2415 21.5949C15.0709 21.0091 16.8939 20.4023 18.7201 19.8074C20.1722 19.3352 21.4829 18.6686 22.4102 17.452C22.5547 17.2607 22.737 17.0126 23.0231 17.0963C23.35 17.192 23.3562 17.5178 23.3625 17.7808C23.3845 18.6477 23.3625 19.5145 23.3845 20.3784C23.394 20.7341 23.1551 20.8237 22.8816 20.9283C22.3599 21.1286 21.8224 21.305 21.4169 21.7773Z" fill="#62271A"/>
<path d="M115.957 35.4435C115.954 34.227 115.897 33.0104 116.293 31.8207C116.944 29.8718 118.289 28.5805 120.292 27.893C121.414 27.5074 122.555 27.1667 123.677 26.7781C124.877 26.3626 125.905 25.702 126.694 24.7276C126.867 24.5123 127.046 24.2284 127.361 24.3061C127.741 24.4017 127.703 24.7634 127.697 25.0564C127.662 26.518 127.794 27.9827 127.625 29.4414C127.304 32.2153 125.6 33.8742 122.888 34.7082C121.942 34.9981 120.989 35.2702 120.056 35.599C118.808 36.0413 117.72 36.7139 116.916 37.7571C116.74 37.9843 116.545 38.34 116.196 38.2055C115.923 38.1008 115.96 37.7451 115.96 37.4731C115.957 36.7976 115.957 36.1191 115.957 35.4435ZM121.411 31.0914C122.602 30.8762 123.752 30.5862 124.736 29.8927C123.516 30.0123 122.419 30.4547 121.411 31.0914Z" fill="#62271A"/>
<path d="M53.7162 13.7306C53.119 13.7306 52.5218 13.7336 51.9214 13.7306C51.7517 13.7306 51.5474 13.7396 51.516 13.5303C51.4845 13.2972 51.692 13.3002 51.8586 13.2882C52.5124 13.2374 52.7167 12.8339 52.7167 12.2839C52.7198 10.063 52.7198 7.84204 52.7198 5.62412C52.7198 5.04423 52.5218 4.6138 51.8146 4.57793C51.6668 4.57195 51.5223 4.52114 51.5128 4.35375C51.5003 4.13554 51.6794 4.08772 51.8554 4.08772C53.1378 4.08174 54.4171 4.08174 55.6995 4.08473C55.8787 4.08473 56.0484 4.11462 56.0421 4.34179C56.0358 4.57195 55.8504 4.57793 55.6807 4.58391C54.9515 4.60782 54.8006 5.06217 54.8037 5.63608C54.8069 6.42221 54.8163 7.20536 54.8006 7.9915C54.7912 8.38008 54.8823 8.5953 55.3601 8.58035C56.2999 8.55345 57.2397 8.56242 58.1795 8.57736C58.5535 8.58334 58.6761 8.43687 58.6698 8.09612C58.6541 7.22927 58.6667 6.36243 58.6572 5.49858C58.651 5.01434 58.4529 4.65864 57.884 4.60184C57.6797 4.58092 57.4503 4.55402 57.5069 4.285C57.5477 4.08772 57.752 4.08772 57.9217 4.08772C59.0879 4.08473 60.2571 4.08174 61.4232 4.08473C61.6118 4.08473 61.8507 4.05185 61.857 4.3388C61.8633 4.56896 61.6778 4.57494 61.505 4.59587C60.8543 4.67059 60.6783 5.09505 60.6783 5.63309C60.6752 7.8271 60.6752 10.0181 60.6783 12.2121C60.6783 12.786 60.8606 13.2284 61.5584 13.2912C61.703 13.3031 61.8507 13.3091 61.8538 13.4974C61.8601 13.7366 61.6715 13.7336 61.5018 13.7336C60.3074 13.7366 59.1099 13.7366 57.9155 13.7336C57.7489 13.7336 57.5414 13.7455 57.5069 13.5363C57.466 13.3002 57.6734 13.3031 57.8432 13.2882C58.5064 13.2224 58.6635 12.789 58.6667 12.254C58.673 11.3602 58.651 10.4665 58.6793 9.57274C58.6918 9.1423 58.5284 9.00182 58.0852 9.01377C57.1737 9.03769 56.2622 9.0347 55.3538 9.01676C54.9483 9.00779 54.8006 9.15725 54.8069 9.53986C54.8226 10.4874 54.81 11.435 54.8163 12.3825C54.8194 12.9176 55.0646 13.2583 55.6681 13.2912C55.8284 13.3002 56.0421 13.2613 56.0421 13.5034C56.0421 13.8053 55.7781 13.7306 55.6021 13.7336C54.9703 13.7396 54.3417 13.7306 53.7162 13.7306Z" fill="#62271A"/>
<path d="M121.096 13.7304C120.499 13.7304 119.899 13.7334 119.301 13.7304C119.132 13.7304 118.927 13.7423 118.896 13.5301C118.861 13.297 119.069 13.3029 119.239 13.285C119.892 13.2163 120.062 12.8097 120.059 12.2568C120.053 10.0358 120.053 7.81493 120.062 5.59402C120.065 5.03207 119.877 4.64348 119.223 4.58669C119.05 4.57174 118.864 4.52392 118.896 4.30272C118.927 4.09348 119.122 4.08452 119.292 4.08452C120.546 4.08153 121.797 4.08153 123.051 4.08452C123.221 4.08452 123.406 4.09348 123.416 4.32066C123.425 4.54484 123.252 4.58071 123.076 4.5837C122.247 4.59566 122.121 5.13967 122.108 5.74945C122.093 6.50869 122.124 7.26792 122.099 8.02417C122.086 8.45161 122.259 8.5921 122.699 8.58014C123.611 8.55623 124.522 8.54726 125.434 8.58313C125.955 8.60405 126.053 8.38585 126.034 7.95841C126.006 7.28287 126.018 6.60434 126.028 5.92581C126.037 5.26821 126.015 4.64348 125.097 4.56278C124.978 4.55082 124.887 4.47609 124.877 4.35354C124.865 4.18316 124.991 4.09946 125.138 4.09946C126.421 4.0905 127.7 4.0905 128.982 4.0905C129.149 4.0905 129.237 4.18316 129.234 4.34756C129.231 4.52392 129.102 4.57174 128.951 4.5837C128.143 4.64348 128.033 5.17554 128.033 5.79728C128.036 7.91058 128.039 10.0239 128.033 12.1372C128.033 12.735 128.159 13.2282 128.916 13.291C129.102 13.3059 129.265 13.3358 129.227 13.563C129.196 13.7453 129.033 13.7334 128.897 13.7334C127.672 13.7364 126.449 13.7364 125.223 13.7334C125.082 13.7334 124.918 13.7244 124.884 13.56C124.836 13.3269 125.019 13.3089 125.198 13.291C125.852 13.2222 126.025 12.8038 126.025 12.2597C126.025 11.366 126.006 10.4722 126.034 9.57851C126.047 9.15405 125.899 9.00759 125.449 9.01954C124.538 9.04345 123.626 9.03748 122.715 9.01954C122.294 9.01057 122.086 9.13014 122.099 9.56655C122.121 10.4334 122.086 11.3002 122.111 12.1671C122.13 12.7769 122.291 13.3179 123.12 13.297C123.268 13.294 123.413 13.3149 123.416 13.5032C123.419 13.7423 123.23 13.7364 123.061 13.7394C122.407 13.7334 121.75 13.7304 121.096 13.7304Z" fill="#62271A"/>
<path d="M90.7052 4.07541C91.5507 4.09036 92.61 3.99471 93.6504 4.18601C94.675 4.37432 95.552 4.79878 95.9103 5.81209C96.2718 6.82838 95.7846 7.8118 94.5084 8.46044C93.8955 8.77131 93.7761 9.03435 94.1187 9.61723C94.6027 10.4392 94.9925 11.315 95.4168 12.1699C95.7123 12.7678 96.1366 13.2042 96.869 13.2849C97.0355 13.3028 97.2461 13.2849 97.221 13.524C97.1958 13.7392 96.9915 13.7302 96.8249 13.7302C95.97 13.7332 95.1182 13.7243 94.2633 13.7362C93.8421 13.7422 93.7666 13.4224 93.6378 13.1713C93.0249 11.9816 92.4245 10.789 91.8242 9.59331C91.6733 9.29141 91.5319 8.9925 91.0855 9.07919C90.5952 9.17484 90.7932 9.54549 90.7838 9.79956C90.7586 10.6096 90.7743 11.4227 90.7743 12.2357C90.7743 12.7707 90.9127 13.2072 91.5759 13.2849C91.7173 13.2998 91.8776 13.3118 91.865 13.5001C91.8493 13.7213 91.6639 13.7302 91.491 13.7302C90.3532 13.7302 89.2153 13.7302 88.0775 13.7273C87.9424 13.7273 87.7789 13.7392 87.7318 13.5718C87.6658 13.3476 87.8355 13.3207 88.0115 13.2669C88.593 13.0936 88.7564 12.6721 88.7564 12.1311C88.747 9.99385 88.7564 7.85365 88.7501 5.71643C88.7501 5.20828 88.6841 4.72405 88.0272 4.59552C87.8449 4.55965 87.6909 4.50285 87.7192 4.29063C87.7506 4.07242 87.9424 4.0784 88.1089 4.0784C88.9042 4.07242 89.7025 4.07541 90.7052 4.07541ZM90.7775 6.7955C90.7775 7.25583 90.7744 7.71615 90.7806 8.17647C90.7838 8.35881 90.7712 8.52919 91.0352 8.61587C91.9625 8.9118 93.1286 8.48734 93.5121 7.66833C93.8232 6.99876 93.8452 6.29333 93.6315 5.60584C93.3738 4.78084 92.6005 4.42813 91.5696 4.6015C90.6958 4.74796 90.7806 5.39062 90.7775 5.98844C90.7743 6.25448 90.7743 6.52349 90.7775 6.7955Z" fill="#62271A"/>
<path d="M32.4878 20.5934C32.4878 18.6027 34.1128 17.0394 36.1999 17.0274C38.2618 17.0155 39.9497 18.5967 39.9685 20.5576C39.9874 22.5662 38.3058 24.1714 36.1967 24.1594C34.1128 24.1445 32.4878 22.5842 32.4878 20.5934Z" fill="#62271A"/>
<path d="M142.266 8.85209C142.275 10.2689 141.927 11.5004 140.968 12.5167C138.947 14.6599 135.731 14.4178 134.072 12.0086C132.846 10.2271 132.89 7.46813 134.172 5.71651C136.008 3.20864 139.657 3.27739 141.386 5.85102C142.015 6.78661 142.294 7.81785 142.266 8.85209ZM140.047 8.9298C140.091 7.89557 139.984 6.87628 139.663 5.88689C139.34 4.88553 138.61 4.32059 137.734 4.3176C136.863 4.31461 136.099 4.87358 135.804 5.88091C135.216 7.89856 135.216 9.94012 135.8 11.9608C136.105 13.0099 136.791 13.5061 137.724 13.5002C138.673 13.4972 139.318 13.0129 139.66 11.9697C139.987 10.9833 140.088 9.96404 140.047 8.9298Z" fill="#62271A"/>
<path d="M148.995 4.07553C149.951 4.05162 151.035 4.06059 152.11 4.18314C154.081 4.40732 155.124 5.59101 154.747 7.14834C154.578 7.84181 154.094 8.26627 153.471 8.5861C152.459 9.10621 151.359 9.21681 150.24 9.16898C149.655 9.14507 149.42 9.31246 149.461 9.89234C149.508 10.5948 149.473 11.3002 149.47 12.0056C149.467 12.6662 149.649 13.1953 150.46 13.282C150.645 13.2999 150.818 13.3209 150.777 13.548C150.74 13.7722 150.529 13.7304 150.369 13.7304C149.086 13.7334 147.804 13.7334 146.522 13.7304C146.33 13.7304 146.075 13.7603 146.091 13.4763C146.104 13.2461 146.333 13.3089 146.49 13.285C147.172 13.1774 147.43 12.7768 147.427 12.1402C147.414 9.97305 147.417 7.80296 147.424 5.63585C147.427 5.044 147.235 4.62553 146.531 4.58966C146.324 4.5777 146.097 4.5508 146.148 4.28178C146.182 4.0845 146.39 4.08151 146.559 4.08151C147.329 4.07553 148.1 4.07553 148.995 4.07553ZM152.55 6.53856C152.575 6.18585 152.519 5.78829 152.318 5.41465C151.934 4.70922 151.104 4.38939 150.183 4.61357C149.398 4.80786 149.476 5.4296 149.47 5.99454C149.464 6.72687 149.47 7.45622 149.467 8.18855C149.467 8.47849 149.495 8.68474 149.904 8.73556C151.601 8.95675 152.557 8.19752 152.55 6.53856Z" fill="#62271A"/>
<path d="M31.4255 11.1808C31.4287 11.5604 31.1961 11.5754 30.9666 11.4887C30.6523 11.3691 30.3286 11.2406 30.0582 11.0523C26.1261 8.35014 22.7504 5.11293 19.8744 1.40344C19.5884 1.03578 19.0414 0.503722 19.4281 0.130083C19.8147 -0.243556 20.3584 0.279538 20.7482 0.548558C24.6394 3.21485 27.9618 6.42515 30.8252 10.0719C31.0955 10.4186 31.3407 10.7863 31.4255 11.1808Z" fill="#62271A"/>
<path d="M73.4178 13.7305C72.7074 13.7305 71.9939 13.7305 71.2836 13.7305C71.1076 13.7305 70.9127 13.7156 70.9032 13.5033C70.8907 13.2642 71.1076 13.3061 71.271 13.2851C72.2328 13.1447 72.302 13.0341 72.0002 12.1373C71.5382 10.7653 71.5382 10.7653 69.9854 10.7653C69.9289 10.7653 69.8723 10.7653 69.8157 10.7653C68.263 10.7653 67.9675 11.0313 67.8009 12.5349C67.7349 13.1387 68.0995 13.2792 68.6276 13.2851C68.8099 13.2881 69.0739 13.2373 69.0299 13.5452C68.9985 13.7694 68.7816 13.7245 68.6245 13.7245C67.7695 13.7305 66.9177 13.7305 66.0628 13.7245C65.9025 13.7245 65.695 13.7485 65.6824 13.5123C65.673 13.2732 65.8742 13.2792 66.0408 13.2851C66.8611 13.318 67.1755 12.8248 67.3798 12.1762C68.1624 9.66831 68.9953 7.16942 69.7277 4.6496C69.9131 4.00694 70.3281 3.96808 70.831 3.89634C71.4596 3.80368 71.3967 4.32677 71.5099 4.63764C72.3931 7.06181 73.2575 9.48897 74.1156 11.9191C74.3639 12.6186 74.6719 13.2343 75.5771 13.2881C75.728 13.2971 75.8695 13.336 75.8506 13.5153C75.8286 13.7455 75.6274 13.7245 75.464 13.7275C74.7819 13.7335 74.0998 13.7305 73.4178 13.7305ZM69.8314 5.96779C69.5328 6.91235 69.2845 7.65664 69.0614 8.40392C68.461 10.4036 68.4642 10.4066 70.6769 10.3229C70.7618 10.3199 70.8467 10.317 70.9347 10.3199C71.2553 10.3199 71.3181 10.1765 71.2207 9.90445C70.7744 8.655 70.3375 7.40855 69.8314 5.96779Z" fill="#62271A"/>
<path d="M111.098 3.85429C112.233 3.82739 113.019 4.24287 113.864 3.96787C114.094 3.89315 114.128 4.20103 114.179 4.36842C114.32 4.83472 114.433 5.30999 114.575 5.77629C114.644 6.00944 114.81 6.26351 114.44 6.3771C114.11 6.47873 114.091 6.17982 114.006 5.99748C113.616 5.15455 113 4.56869 112.019 4.3714C111.494 4.2638 110.995 4.32657 110.52 4.54178C109.558 4.97521 109.395 6.09612 110.215 6.74775C110.765 7.18416 111.435 7.43524 112.085 7.71622C112.629 7.94937 113.185 8.16758 113.695 8.46051C115.144 9.28849 115.593 10.4991 115.059 12.0056C114.575 13.3776 113.308 14.1069 111.718 13.9575C110.938 13.8828 110.171 13.5898 109.363 13.8917C109.024 14.0203 108.952 13.6825 108.895 13.4523C108.725 12.7618 108.065 12.1311 108.367 11.4167C108.508 11.076 108.867 11.4556 109.043 11.7067C109.775 12.7469 110.687 13.5031 112.104 13.4643C112.95 13.4404 113.644 12.986 113.836 12.2656C114.037 11.5214 113.729 10.9534 113.085 10.514C112.126 9.85941 110.957 9.61431 109.951 9.04937C109.043 8.54122 108.389 7.90454 108.37 6.8165C108.339 5.0051 109.489 3.86326 111.098 3.85429Z" fill="#62271A"/>
<path d="M80.7292 8.95372C80.7292 7.86867 80.7167 6.78661 80.7324 5.70156C80.7418 5.08879 80.5972 4.6195 79.8334 4.58363C79.6574 4.57467 79.4594 4.55673 79.4531 4.34749C79.4405 4.07548 79.6794 4.07548 79.8774 4.07548C81.1316 4.07249 82.3857 4.07249 83.6398 4.07548C83.8378 4.07548 84.0767 4.07847 84.061 4.35048C84.0484 4.55972 83.8473 4.58064 83.6744 4.58064C82.9106 4.58961 82.7314 5.02602 82.7346 5.65672C82.7472 7.82383 82.7472 9.99094 82.7346 12.161C82.7314 12.8306 82.9357 13.276 83.7278 13.2849C83.9007 13.2879 84.0924 13.2999 84.0578 13.539C84.0358 13.7094 83.8756 13.7243 83.731 13.7273C82.4203 13.7303 81.1096 13.7303 79.7989 13.7273C79.6166 13.7273 79.4437 13.6974 79.4531 13.4733C79.4594 13.2849 79.6291 13.2909 79.7674 13.2849C80.5595 13.2491 80.7418 12.7738 80.7324 12.1222C80.7167 11.067 80.7292 10.0089 80.7292 8.95372Z" fill="#62271A"/>
<path d="M47.6911 4.15029C47.556 4.38344 47.446 4.63751 47.2794 4.85273C45.3935 7.25 43.1964 9.35732 40.663 11.1388C40.5719 11.2016 40.4713 11.2554 40.3739 11.3122C40.179 11.4228 39.937 11.5902 39.7547 11.4288C39.5126 11.2166 39.7389 10.9685 39.8772 10.7831C41.8166 8.17662 44.1519 5.94077 46.9022 4.10545C47.0971 3.97393 47.314 3.78263 47.5937 3.92013C47.6471 3.94404 47.6534 4.05464 47.6911 4.15029Z" fill="#62271A"/>
</svg>
