<svg width="16" height="40" viewBox="0 0 16 40" fill="none" xmlns="http://www.w3.org/2000/svg">
<path d="M15.1393 4.8015C15.415 8.71733 12.5538 9.5114 12.1392 9.74231C11.7238 9.97276 9.97852 10.6519 10.0249 11.7116C10.0704 12.771 9.81209 23.6913 9.79545 24.7564C9.79545 24.7564 8.67244 39.4597 8.40761 39.9257C8.14203 40.3903 7.58053 38.57 7.45897 37.392C7.33887 36.2154 6.95606 19.0377 6.95606 19.0377C6.95606 19.0377 8.23395 16.8412 8.39385 16.5742C8.55385 16.3072 8.71736 11.7832 9.00023 10.8776C9.28314 9.97201 9.98219 9.46221 9.96334 9.27557C9.94314 9.0907 8.15576 8.14567 8.0444 5.21542C7.93224 2.28442 9.51907 0.0564768 11.2666 0.00215568C13.014 -0.0517115 14.8629 0.884968 15.1393 4.8015ZM11.6269 1.07492C10.3259 1.20773 8.92355 2.18351 8.96118 4.99612C8.99877 7.80914 10.9293 8.86241 11.9626 8.63296C13.0039 8.40105 14.1965 7.21432 14.4207 5.12492C14.6451 3.03628 12.9272 0.941403 11.6269 1.07492Z" fill="#534638"/>
<path d="M8.31077 39.8703C8.03655 39.4105 6.60745 24.7344 6.60745 24.7344C6.56981 23.6688 6.08434 12.7564 6.10891 11.6968C6.13278 10.637 4.37373 9.9937 3.95398 9.77119C3.53424 9.55013 0.6572 8.81496 0.851171 4.89445C1.0465 0.973248 2.87504 -0.00182706 4.62409 0.0151561C6.37157 0.0332456 8.00479 2.22792 7.95338 5.16079C7.90203 8.0932 6.13419 9.074 6.11976 9.25998C6.10459 9.44662 6.81444 9.94159 7.11615 10.8411C7.41645 11.7412 7.67338 16.2612 7.83981 16.5243C8.0062 16.7877 9.32901 18.9567 9.32901 18.9567C9.32901 18.9567 9.30368 36.1395 9.20665 37.3178C9.11037 38.4991 8.5865 40.3302 8.31077 39.8703ZM7.03223 4.96069C7.01193 2.14767 5.58931 1.20269 4.28539 1.09516C2.98152 0.988827 1.30846 3.11983 1.5769 5.2035C1.84393 7.28752 3.06107 8.44888 4.10665 8.65873C5.14429 8.86782 7.05243 7.77405 7.03223 4.96069Z" fill="#534638"/>
</svg>
