<svg width="118" height="40" viewBox="0 0 118 40" fill="none" xmlns="http://www.w3.org/2000/svg">
<path d="M5.63412 28.396C5.63412 31.8242 5.62705 35.2524 5.64355 38.6807C5.64591 39.0859 5.50918 39.1962 5.09665 39.1962C2.48942 39.1894 0.54696 37.3841 0.528102 34.719C0.478597 27.903 0.5116 21.0871 0.502171 14.2711C0.502171 13.9245 0.612966 13.8277 0.973641 13.8209C3.55258 13.7669 5.58933 15.6847 5.60348 18.2351C5.61762 21.1726 5.60819 24.1124 5.60819 27.0522C5.60819 27.5001 5.60819 27.9503 5.60819 28.3982C5.61762 28.396 5.62705 28.396 5.63412 28.396ZM3.90383 29.1838C3.67752 29.9559 3.64216 30.7257 3.9109 31.6284C4.16785 30.7212 4.15606 29.9514 3.90383 29.1838ZM2.68272 20.2632C2.33383 21.0713 2.26075 22.2846 2.50592 22.8428C2.70629 22.001 2.76758 21.1861 2.68272 20.2632Z" fill="white"/>
<path d="M117.5 15.9094C117.01 16.1997 116.51 16.1952 116.043 16.238C112.979 16.5126 109.905 16.6117 106.831 16.6207C103.306 16.6319 99.7797 16.6319 96.2579 16.5712C94.3178 16.5374 92.3706 16.4991 90.4399 16.2763C89.2801 16.1435 88.1368 16.3416 86.9888 16.4023C81.0977 16.7242 75.202 16.6815 69.3086 16.5712C67.3261 16.5351 65.3389 16.4811 63.3634 16.2628C62.1847 16.1322 61.0202 16.3573 59.8486 16.4136C53.5521 16.713 47.2533 16.7107 40.9521 16.5171C39.0521 16.4586 37.1544 16.3911 35.2685 16.139C35.0422 16.1097 34.8065 16.1052 34.5967 15.8689C35.1012 15.6077 35.6363 15.6032 36.1478 15.5605C39.2336 15.2949 42.3288 15.1981 45.4263 15.1823C49.7639 15.1598 54.1108 15.0225 58.4318 15.3511C62.1376 15.6325 65.8056 15.2971 69.4925 15.2318C72.9955 15.1711 76.5009 15.1778 80.0039 15.1891C83.1015 15.2003 86.192 15.3894 89.2825 15.5425C90.8925 15.6212 92.5191 15.3759 94.1386 15.3106C99.1998 15.1103 104.263 15.1283 109.325 15.2318C111.798 15.2836 114.277 15.3286 116.736 15.6618C116.984 15.6933 117.226 15.718 117.5 15.9094Z" fill="white"/>
<path d="M47.5599 34.851C47.4821 36.7801 46.7725 38.4008 44.79 39.1549C42.6542 39.9675 40.6599 39.5038 38.9602 38.0676C37.3808 36.7351 36.8457 34.923 36.8198 32.9962C36.7467 27.5488 39.5024 23.6254 44.2053 20.8027C44.7452 20.4785 45.344 20.2444 45.9852 20.1431C46.1596 20.1161 46.3529 20.0891 46.4637 20.2242C46.6051 20.3953 46.4826 20.5731 46.3718 20.7262C46.2374 20.9107 46.1007 21.0931 45.9498 21.2641C43.4911 24.0531 42.0248 27.2585 41.5675 30.8758C41.4308 31.954 41.4355 33.0367 41.7985 34.0857C42.0861 34.914 42.6047 35.5376 43.5877 35.6163C44.5566 35.6929 45.2002 35.2022 45.6528 34.4323C45.9969 33.8448 46.0983 33.21 46.0747 32.546C46.0677 32.3524 45.9734 32.0666 46.195 31.9855C46.4472 31.8932 46.6028 32.1633 46.7466 32.3277C47.3713 33.0615 47.574 33.9214 47.5599 34.851Z" fill="white"/>
<path d="M97.9692 32.308C98.238 27.2208 100.909 23.3717 105.588 20.711C106.102 20.4184 106.663 20.2023 107.264 20.1348C107.682 20.0875 107.842 20.2878 107.62 20.6435C107.436 20.9406 107.205 21.2107 106.974 21.4786C104.558 24.2766 103.16 27.4842 102.743 31.0835C102.63 32.0627 102.67 33.0396 102.962 33.994C103.266 34.9845 103.936 35.5697 104.806 35.6282C105.72 35.689 106.496 35.196 106.944 34.2574C107.222 33.6721 107.333 33.0554 107.309 32.4116C107.304 32.263 107.21 32.0537 107.42 31.9817C107.606 31.9186 107.724 32.101 107.837 32.2113C108.287 32.6457 108.525 33.1904 108.646 33.7779C109.256 36.7447 107.37 39.5944 103.973 39.5247C101.468 39.4729 99.3365 37.9692 98.4737 35.5607C98.1154 34.5635 98.0329 33.5303 97.9692 32.308ZM100.121 32.0582C99.9258 32.783 99.9023 33.5101 100.129 34.2349C100.338 33.5146 100.338 32.7898 100.121 32.0582Z" fill="white"/>
<path d="M69.9828 31.6192C69.9828 29.3142 69.9828 27.007 69.9828 24.702C69.9828 22.9507 69.3982 21.5439 67.543 20.8596C67.2978 20.7695 66.9819 20.6637 67.022 20.3216C67.0668 19.9389 67.4346 19.9187 67.7104 19.9097C68.9668 19.8624 70.2351 19.7566 71.4798 19.9997C73.7004 20.4341 75.07 22.0841 75.0983 24.4319C75.1384 27.9209 75.1478 31.4121 75.0959 34.9011C75.0559 37.555 73.2761 39.2815 70.6288 39.4211C70.1266 39.4481 69.898 39.3423 69.9852 38.8403C69.9876 38.8201 69.9852 38.7998 69.9852 38.7796C69.9829 36.3935 69.9828 34.0075 69.9828 31.6192ZM72.1115 29.6091C72.3591 28.6772 72.3685 27.8691 72.1092 26.9484C71.8522 27.8713 71.8428 28.6794 72.1115 29.6091ZM71.2417 33.8927C71.4633 33.1161 71.5104 32.335 71.2346 31.4166C70.9871 32.335 70.9989 33.1116 71.2417 33.8927Z" fill="white"/>
<path d="M66.0433 27.5964C66.0433 29.8811 66.0409 32.1658 66.0456 34.4506C66.048 35.0223 66.1093 35.5873 66.2554 36.1433C66.4982 37.0685 67.0664 37.7438 67.9457 38.1849C68.1908 38.3087 68.4407 38.4213 68.6906 38.5383C68.8957 38.6351 69.0536 38.7679 69.0206 39.0088C68.9876 39.2564 68.7684 39.3667 68.5633 39.3712C66.9061 39.4162 65.2206 39.6751 63.6294 39.0223C61.7553 38.2547 60.9915 36.7466 60.9655 34.912C60.9137 31.405 60.9208 27.8957 60.9608 24.3865C60.9891 21.8271 62.5803 20.2042 65.2418 19.8958C66.015 19.8058 66.0456 19.8305 66.0456 20.5553C66.0433 22.9031 66.0433 25.2486 66.0433 27.5964ZM63.7732 36.2694C63.99 35.3195 64.0348 34.5361 63.759 33.6087C63.5068 34.5406 63.5115 35.3262 63.7732 36.2694ZM62.6911 29.136C62.8538 28.427 62.9457 27.7179 62.6581 27.0201C62.4743 27.7269 62.4695 28.4315 62.6911 29.136Z" fill="white"/>
<path d="M109.431 27.7248C109.431 25.3793 109.447 23.036 109.417 20.6905C109.41 20.1615 109.589 20.0467 110.105 20.0647C112.493 20.1458 114.393 21.8205 114.48 24.1232C114.572 26.5678 114.506 29.0146 114.525 31.4614C114.535 32.7242 114.48 33.987 114.591 35.2498C114.716 36.6747 115.381 37.7124 116.767 38.3089C117.078 38.4439 117.58 38.5137 117.488 38.9527C117.389 39.4321 116.873 39.3803 116.479 39.3848C115.541 39.3938 114.591 39.4591 113.665 39.3533C110.965 39.0472 109.454 37.3522 109.428 34.6961C109.417 33.5346 109.426 32.3708 109.426 31.2093C109.431 30.0478 109.431 28.8863 109.431 27.7248ZM112.097 25.5256C111.927 26.3427 111.875 27.1238 112.128 27.9612C112.425 27.099 112.413 26.1739 112.097 25.5256Z" fill="white"/>
<path d="M53.3189 29.1992C53.4061 31.4952 53.2505 33.4333 53.4156 35.3669C53.5334 36.7467 54.2336 37.7304 55.5678 38.3134C55.8837 38.4507 56.433 38.507 56.2868 39.0089C56.1619 39.4321 55.6715 39.3849 55.2991 39.3894C54.3585 39.3984 53.4108 39.4569 52.482 39.3578C49.7711 39.072 48.2435 37.3455 48.227 34.5813C48.2082 31.4389 48.2223 28.2988 48.2223 25.1565C48.2223 23.6461 48.2435 22.1357 48.2105 20.6275C48.1987 20.1458 48.3708 20.058 48.8305 20.067C51.2916 20.1098 53.2199 21.8475 53.3095 24.2358C53.3708 26.0051 53.3189 27.7811 53.3189 29.1992ZM51.5273 26.7569C51.8927 25.9961 51.8738 24.9786 51.5367 24.3551C51.4943 24.7895 51.4283 25.1722 51.4283 25.5526C51.4283 25.9556 51.492 26.3562 51.5273 26.7569ZM50.7635 34.8446C50.9309 34.1176 50.9757 33.3995 50.7494 32.6927C50.5419 33.413 50.5349 34.1333 50.7635 34.8446Z" fill="white"/>
<path d="M84.4992 37.2977C84.4568 37.8267 84.3766 38.2926 84.3978 38.7541C84.4143 39.1255 84.2847 39.202 83.9358 39.1908C83.2522 39.1705 82.5685 39.1683 81.8849 39.1908C81.5172 39.2043 81.4134 39.0782 81.4158 38.7361C81.4323 37.4103 81.4229 36.0844 81.4229 34.7586C81.4229 30.0676 81.4323 25.3766 81.4087 20.6855C81.4064 20.1656 81.5549 20.0418 82.0829 20.0598C84.6171 20.1521 86.4864 21.9753 86.51 24.5572C86.5501 29.2685 86.5171 33.9798 86.5289 38.6911C86.5289 39.0535 86.4299 39.184 86.0291 39.1908C84.8269 39.211 84.8292 39.2268 84.7562 38.0968C84.742 37.8447 84.7514 37.5768 84.4992 37.2977ZM84.5629 25.3473C84.2658 26.3535 84.2847 27.1751 84.5911 27.8009C84.8009 27.004 84.8033 26.2252 84.5629 25.3473ZM83.3441 30.8734C83.1602 31.5982 83.0872 32.3141 83.37 33.0231C83.5398 32.3028 83.5751 31.5847 83.3441 30.8734Z" fill="white"/>
<path d="M25.2209 27.8101C25.2209 25.4421 25.2445 23.0763 25.2044 20.7083C25.195 20.1253 25.4095 20.042 25.9328 20.0668C28.5707 20.1838 30.3293 22.0544 30.3411 24.8411C30.3576 28.6362 30.3458 32.4314 30.3434 36.2265C30.3434 37.0436 30.3222 37.8607 30.3528 38.6756C30.367 39.0808 30.2256 39.1933 29.8083 39.1933C27.2954 39.1911 25.3081 37.3948 25.2586 34.9705C25.2115 32.5844 25.2492 30.1962 25.2492 27.8101C25.2398 27.8101 25.2303 27.8101 25.2209 27.8101ZM29.0139 30.2277C29.1176 29.4286 29.0068 28.6587 28.6343 27.9339C28.5188 28.7308 28.665 29.4894 29.0139 30.2277ZM27.7103 36.3008C27.8517 35.54 27.8729 34.7836 27.583 33.908C27.3449 34.8017 27.425 35.5535 27.7103 36.3008ZM27.3897 22.6577C27.0549 23.3577 26.9465 24.0758 27.062 24.9581C27.451 24.1365 27.5311 23.4072 27.3897 22.6577Z" fill="white"/>
<path d="M18.0271 37.5051C18.0271 38.0138 18.0342 38.5248 18.0248 39.0335C18.0224 39.1933 18.0012 39.3824 17.8102 39.4432C17.6099 39.5085 17.4849 39.3554 17.4024 39.2181C16.4901 37.7459 14.9979 36.9581 13.5199 36.1275C11.9263 35.2294 10.2007 34.5248 8.80989 33.3183C7.48978 32.1748 6.86743 30.7162 6.80379 29.0369C6.76843 28.1005 6.79671 27.1619 6.79907 26.2255C6.79907 26.0431 6.7755 25.8135 6.9853 25.7505C7.20925 25.683 7.31297 25.9103 7.40491 26.0589C8.17576 27.2924 9.33794 28.0983 10.618 28.7871C11.8061 29.4264 12.9635 30.1242 14.1729 30.7252C16.8791 32.0712 18.1662 34.1737 18.0413 37.0774C18.0342 37.2192 18.0413 37.3633 18.0413 37.5051C18.0318 37.5051 18.0295 37.5051 18.0271 37.5051ZM12.6123 32.4021C11.9758 31.7809 11.2427 31.3059 10.3893 31.011C11.0164 31.6436 11.7636 32.0983 12.6123 32.4021Z" fill="white"/>
<path d="M16.5628 16.7944C17.0249 16.6706 17.4893 16.5468 17.956 16.4208C18.1446 18.3499 17.0225 20.1124 15.04 20.8665C13.6774 21.3864 12.2725 21.8074 10.8816 22.2576C9.59215 22.674 8.36633 23.176 7.55068 24.2947C7.45403 24.4275 7.33852 24.5783 7.14286 24.5378C6.96842 24.5018 6.93542 24.3262 6.93777 24.1934C6.9637 22.8113 6.75861 21.4134 7.08629 20.0494C7.50354 18.3116 8.67985 17.2199 10.4314 16.6571C11.8033 16.2159 13.1706 15.759 14.5402 15.3111C15.6293 14.9554 16.6123 14.4534 17.3078 13.5373C17.4162 13.3932 17.5529 13.2064 17.7674 13.2694C18.0126 13.3415 18.0173 13.5868 18.022 13.7849C18.0385 14.4377 18.022 15.0905 18.0385 15.741C18.0456 16.0089 17.8664 16.0764 17.6614 16.1552C17.27 16.306 16.8669 16.4388 16.5628 16.7944Z" fill="white"/>
<path d="M87.4672 27.0855C87.4649 26.1693 87.4224 25.2532 87.7195 24.3573C88.2074 22.8897 89.2164 21.9172 90.718 21.3995C91.5596 21.1091 92.4153 20.8525 93.2569 20.5599C94.1574 20.247 94.9283 19.7496 95.5199 19.0157C95.6496 18.8537 95.784 18.6398 96.0197 18.6984C96.3049 18.7704 96.2767 19.0428 96.2719 19.2633C96.246 20.3641 96.345 21.4671 96.2177 22.5655C95.9773 24.6544 94.6996 25.9037 92.6652 26.5317C91.9556 26.7501 91.2414 26.9549 90.5412 27.2025C89.6054 27.5357 88.7897 28.0421 88.1862 28.8277C88.0542 28.9988 87.9081 29.2667 87.6464 29.1654C87.4413 29.0866 87.4696 28.8187 87.4696 28.6139C87.4672 28.1052 87.4672 27.5942 87.4672 27.0855ZM91.5572 23.8081C92.4507 23.646 93.3135 23.4276 94.0513 22.9054C93.1367 22.9955 92.314 23.3286 91.5572 23.8081Z" fill="white"/>
<path d="M40.7868 10.7341C40.3389 10.7341 39.891 10.7364 39.4407 10.7341C39.3134 10.7341 39.1602 10.7409 39.1366 10.5833C39.113 10.4077 39.2686 10.41 39.3936 10.401C39.8839 10.3627 40.0371 10.0588 40.0371 9.64465C40.0395 7.97217 40.0395 6.2997 40.0395 4.62948C40.0395 4.19279 39.891 3.86865 39.3606 3.84164C39.2498 3.83714 39.1413 3.79887 39.1343 3.67282C39.1248 3.50849 39.2592 3.47248 39.3912 3.47248C40.353 3.46798 41.3125 3.46798 42.2742 3.47023C42.4086 3.47023 42.5359 3.49274 42.5312 3.66381C42.5265 3.83714 42.3874 3.84164 42.2601 3.84614C41.7132 3.86415 41.6 4.2063 41.6024 4.63848C41.6048 5.23049 41.6118 5.82024 41.6 6.41225C41.593 6.70488 41.6613 6.86695 42.0197 6.85569C42.7245 6.83543 43.4294 6.84219 44.1342 6.85344C44.4147 6.85794 44.5067 6.74765 44.5019 6.49103C44.4902 5.83825 44.4996 5.18547 44.4925 4.53494C44.4878 4.17028 44.3393 3.90242 43.9126 3.85965C43.7594 3.84389 43.5873 3.82363 43.6297 3.62104C43.6604 3.47248 43.8136 3.47248 43.9409 3.47248C44.8155 3.47023 45.6924 3.46798 46.567 3.47023C46.7084 3.47023 46.8876 3.44547 46.8923 3.66156C46.897 3.83489 46.7579 3.83939 46.6283 3.85514C46.1403 3.91142 46.0083 4.23106 46.0083 4.63623C46.0059 6.28845 46.0059 7.93841 46.0083 9.59062C46.0083 10.0228 46.145 10.356 46.6683 10.4032C46.7768 10.4122 46.8876 10.4167 46.8899 10.5585C46.8947 10.7386 46.7532 10.7364 46.6259 10.7364C45.7301 10.7386 44.832 10.7386 43.9362 10.7364C43.8112 10.7364 43.6557 10.7454 43.6297 10.5878C43.5991 10.41 43.7547 10.4122 43.882 10.401C44.3794 10.3515 44.4972 10.0251 44.4996 9.62214C44.5043 8.9491 44.4878 8.27606 44.509 7.60301C44.5184 7.27887 44.3959 7.17308 44.0635 7.18208C43.3798 7.20009 42.6962 7.19784 42.0149 7.18433C41.7108 7.17758 41.6 7.29013 41.6048 7.57825C41.6165 8.29181 41.6071 9.00537 41.6118 9.71893C41.6142 10.1219 41.7981 10.3785 42.2507 10.4032C42.3709 10.41 42.5312 10.3807 42.5312 10.563C42.5312 10.7904 42.3332 10.7341 42.2012 10.7364C41.7273 10.7409 41.2559 10.7341 40.7868 10.7341Z" fill="white"/>
<path d="M91.321 10.7338C90.8731 10.7338 90.4228 10.7361 89.9749 10.7338C89.8476 10.7338 89.6944 10.7428 89.6708 10.583C89.6449 10.4074 89.8005 10.412 89.9278 10.3984C90.4181 10.3467 90.5454 10.0405 90.5431 9.62411C90.5383 7.95164 90.5383 6.27916 90.5454 4.60669C90.5478 4.18351 90.4063 3.89088 89.916 3.84811C89.7863 3.83686 89.6473 3.80084 89.6708 3.63427C89.6944 3.4767 89.8406 3.46995 89.9679 3.46995C90.9084 3.4677 91.8467 3.4677 92.7872 3.46995C92.9145 3.46995 93.0536 3.4767 93.0607 3.64778C93.0678 3.8166 92.9381 3.84361 92.8061 3.84586C92.1838 3.85487 92.0895 4.26454 92.08 4.72374C92.0683 5.29549 92.0918 5.86724 92.073 6.43673C92.0635 6.75862 92.1932 6.86442 92.5232 6.85541C93.2069 6.83741 93.8905 6.83065 94.5741 6.85766C94.9654 6.87342 95.0385 6.7091 95.0244 6.38721C95.0032 5.87849 95.0126 5.36752 95.0197 4.85655C95.0267 4.36134 95.0102 3.89088 94.3219 3.83011C94.2323 3.8211 94.1639 3.76483 94.1569 3.67254C94.1474 3.54423 94.2417 3.4812 94.3525 3.4812C95.3143 3.47445 96.2738 3.47445 97.2356 3.47445C97.3605 3.47445 97.4265 3.54423 97.4242 3.66804C97.4218 3.80084 97.3251 3.83686 97.212 3.84586C96.6062 3.89088 96.5236 4.29156 96.5236 4.75976C96.526 6.3512 96.5284 7.94263 96.5236 9.53407C96.5236 9.98427 96.6179 10.3557 97.1861 10.4029C97.3251 10.4142 97.4477 10.4367 97.4194 10.6078C97.3959 10.7451 97.2733 10.7361 97.1719 10.7361C96.2526 10.7383 95.3355 10.7383 94.4162 10.7361C94.3101 10.7361 94.1875 10.7293 94.1616 10.6055C94.1262 10.43 94.2629 10.4165 94.3973 10.4029C94.8876 10.3512 95.0173 10.036 95.0173 9.62636C95.0173 8.95332 95.0032 8.28028 95.0244 7.60724C95.0338 7.2876 94.923 7.1773 94.5859 7.18631C93.9023 7.20431 93.2186 7.19981 92.535 7.18631C92.2191 7.17955 92.0635 7.26959 92.073 7.59823C92.0895 8.25102 92.0635 8.9038 92.0824 9.55658C92.0965 10.0158 92.2168 10.4232 92.8391 10.4074C92.9499 10.4052 93.0583 10.421 93.0607 10.5628C93.0631 10.7428 92.9216 10.7383 92.7943 10.7406C92.304 10.7361 91.8113 10.7338 91.321 10.7338Z" fill="white"/>
<path d="M68.5281 3.46382C69.1623 3.47507 69.9567 3.40304 70.737 3.5471C71.5055 3.68892 72.1632 4.00855 72.4319 4.77163C72.703 5.53697 72.3376 6.27754 71.3805 6.766C70.9209 7.0001 70.8313 7.19818 71.0882 7.63712C71.4513 8.25614 71.7436 8.91568 72.0618 9.55945C72.2834 10.0096 72.6016 10.3383 73.1509 10.3991C73.2758 10.4126 73.4338 10.3991 73.4149 10.5791C73.3961 10.7412 73.2428 10.7345 73.1179 10.7345C72.4767 10.7367 71.8379 10.73 71.1967 10.739C70.8808 10.7435 70.8242 10.5026 70.7276 10.3135C70.2679 9.41764 69.8176 8.5195 69.3674 7.61911C69.2542 7.39177 69.1481 7.16667 68.8134 7.23195C68.4456 7.30398 68.5941 7.5831 68.5871 7.77443C68.5682 8.38445 68.58 8.99671 68.58 9.60898C68.58 10.0119 68.6837 10.3405 69.1811 10.3991C69.2872 10.4103 69.4074 10.4193 69.398 10.5611C69.3862 10.7277 69.2471 10.7345 69.1175 10.7345C68.2641 10.7345 67.4108 10.7345 66.5574 10.7322C66.456 10.7322 66.3335 10.7412 66.2981 10.6152C66.2486 10.4463 66.3759 10.4261 66.5079 10.3856C66.944 10.255 67.0666 9.93762 67.0666 9.53019C67.0595 7.92075 67.0666 6.30905 67.0619 4.6996C67.0619 4.31694 67.0124 3.95228 66.5197 3.85549C66.383 3.82848 66.2674 3.78571 66.2887 3.62589C66.3122 3.46157 66.456 3.46607 66.581 3.46607C67.1774 3.46157 67.7761 3.46382 68.5281 3.46382ZM68.5824 5.5122C68.5824 5.85885 68.58 6.2055 68.5847 6.55215C68.5871 6.68946 68.5776 6.81777 68.7757 6.88305C69.4711 7.10589 70.3457 6.78626 70.6333 6.16949C70.8666 5.66527 70.8831 5.13404 70.7228 4.61632C70.5295 3.99505 69.9496 3.72943 69.1764 3.85999C68.5211 3.97029 68.5847 4.45425 68.5824 4.90444C68.58 5.10478 68.58 5.30737 68.5824 5.5122Z" fill="white"/>
<path d="M24.8657 15.9027C24.8657 14.4036 26.0845 13.2263 27.6498 13.2173C29.1962 13.2083 30.4621 14.3991 30.4762 15.8757C30.4904 17.3884 29.2292 18.5972 27.6474 18.5882C26.0845 18.5769 24.8657 17.4019 24.8657 15.9027Z" fill="white"/>
<path d="M107.198 7.06065C107.205 8.12761 106.944 9.05501 106.225 9.82034C104.709 11.4343 102.297 11.252 101.053 9.43767C100.133 8.09609 100.166 6.01845 101.128 4.69938C102.505 2.81081 105.242 2.86258 106.538 4.80067C107.01 5.50522 107.219 6.28181 107.198 7.06065ZM105.534 7.11917C105.567 6.34033 105.487 5.57275 105.246 4.82768C105.004 4.07361 104.457 3.64817 103.799 3.64592C103.146 3.64367 102.573 4.0646 102.351 4.82318C101.911 6.34259 101.911 7.88 102.349 9.40166C102.578 10.1917 103.092 10.5654 103.792 10.5609C104.504 10.5587 104.987 10.194 105.244 9.40841C105.489 8.66559 105.565 7.89801 105.534 7.11917Z" fill="white"/>
<path d="M112.246 3.46403C112.962 3.44602 113.776 3.45278 114.582 3.54507C116.06 3.71389 116.842 4.60527 116.56 5.77803C116.432 6.30026 116.069 6.61989 115.602 6.86075C114.843 7.25242 114.018 7.3357 113.179 7.29969C112.741 7.28168 112.564 7.40773 112.594 7.84442C112.63 8.3734 112.604 8.90463 112.602 9.43586C112.599 9.93333 112.736 10.3317 113.344 10.397C113.483 10.4105 113.613 10.4263 113.582 10.5974C113.554 10.7662 113.396 10.7347 113.276 10.7347C112.314 10.7369 111.352 10.7369 110.39 10.7347C110.247 10.7347 110.056 10.7572 110.067 10.5433C110.077 10.37 110.249 10.4173 110.367 10.3993C110.878 10.3182 111.072 10.0166 111.069 9.53716C111.06 7.9052 111.062 6.27099 111.067 4.63904C111.069 4.19335 110.925 3.87821 110.397 3.8512C110.242 3.84219 110.072 3.82193 110.11 3.61935C110.136 3.47078 110.291 3.46853 110.419 3.46853C110.996 3.46403 111.574 3.46403 112.246 3.46403ZM114.912 5.31883C114.931 5.05322 114.888 4.75384 114.737 4.47247C114.45 3.94124 113.827 3.70038 113.137 3.86921C112.547 4.01552 112.606 4.48372 112.602 4.90915C112.597 5.46064 112.602 6.00988 112.599 6.56137C112.599 6.77971 112.62 6.93503 112.927 6.9733C114.2 7.13987 114.916 6.56812 114.912 5.31883Z" fill="white"/>
<path d="M24.0689 8.81483C24.0713 9.1007 23.8968 9.11195 23.7247 9.04668C23.489 8.95664 23.2462 8.85985 23.0435 8.71803C20.0944 6.68315 17.5626 4.24535 15.4057 1.45189C15.1911 1.17502 14.781 0.774351 15.0709 0.492979C15.3609 0.211608 15.7687 0.605528 16.061 0.808116C18.9794 2.81598 21.4711 5.23353 23.6187 7.97972C23.8214 8.24083 24.0053 8.5177 24.0689 8.81483Z" fill="white"/>
<path d="M55.5629 10.7347C55.0301 10.7347 54.495 10.7347 53.9623 10.7347C53.8303 10.7347 53.6841 10.7234 53.677 10.5636C53.6676 10.3835 53.8303 10.415 53.9528 10.3993C54.6742 10.2935 54.7261 10.2102 54.4997 9.5349C54.1532 8.5017 54.1532 8.5017 52.9887 8.5017C52.9463 8.5017 52.9038 8.5017 52.8614 8.5017C51.6969 8.5017 51.4753 8.70204 51.3503 9.83428C51.3008 10.289 51.5743 10.3948 51.9703 10.3993C52.107 10.4015 52.305 10.3633 52.272 10.5951C52.2485 10.7639 52.0858 10.7302 51.9679 10.7302C51.3268 10.7347 50.6879 10.7347 50.0467 10.7302C49.9265 10.7302 49.7709 10.7482 49.7615 10.5703C49.7544 10.3903 49.9053 10.3948 50.0302 10.3993C50.6455 10.424 50.8812 10.0526 51.0344 9.56416C51.6214 7.67559 52.2461 5.79378 52.7954 3.89621C52.9345 3.41225 53.2456 3.38299 53.6228 3.32896C54.0943 3.25918 54.0471 3.6531 54.132 3.88721C54.7944 5.71274 55.4427 7.54053 56.0862 9.37058C56.2725 9.8973 56.5035 10.361 57.1824 10.4015C57.2956 10.4083 57.4016 10.4375 57.3875 10.5726C57.371 10.7459 57.2201 10.7302 57.0975 10.7324C56.586 10.7369 56.0745 10.7347 55.5629 10.7347ZM52.8732 4.88889C52.6492 5.6002 52.463 6.16069 52.2956 6.72343C51.8454 8.22933 51.8477 8.23158 53.5073 8.16856C53.5709 8.16631 53.6346 8.16405 53.7006 8.1663C53.941 8.1663 53.9882 8.05826 53.9151 7.85342C53.5804 6.91251 53.2527 5.97386 52.8732 4.88889Z" fill="white"/>
<path d="M83.8233 3.29685C84.6743 3.27659 85.2636 3.58947 85.8978 3.38238C86.0698 3.32611 86.0958 3.55796 86.1335 3.68402C86.2396 4.03517 86.3244 4.39307 86.4305 4.74422C86.4824 4.9198 86.6073 5.11113 86.3292 5.19667C86.0816 5.2732 86.0675 5.0481 86.0038 4.9108C85.7115 4.27602 85.2495 3.83483 84.514 3.68627C84.1203 3.60523 83.7455 3.6525 83.3895 3.81457C82.6682 4.14096 82.5456 4.98508 83.1609 5.47579C83.5734 5.80443 84.0755 5.99351 84.5635 6.2051C84.9713 6.38068 85.3886 6.545 85.7705 6.7656C86.8572 7.38912 87.1943 8.30076 86.7936 9.43525C86.4305 10.4684 85.4805 11.0177 84.2877 10.9051C83.7031 10.8489 83.1279 10.6283 82.522 10.8556C82.2674 10.9524 82.2132 10.698 82.1708 10.5247C82.0435 10.0047 81.5484 9.52979 81.7748 8.99181C81.8808 8.7352 82.1496 9.02107 82.2816 9.21015C82.8309 9.99349 83.5145 10.563 84.5776 10.5337C85.2118 10.5157 85.7327 10.1736 85.8765 9.63108C86.0274 9.07059 85.7964 8.64291 85.3131 8.31201C84.5941 7.81905 83.7172 7.63447 82.9629 7.20904C82.2816 6.82637 81.7913 6.34692 81.7771 5.52756C81.7535 4.16347 82.6163 3.3036 83.8233 3.29685Z" fill="white"/>
<path d="M61.0463 7.13719C61.0463 6.32009 61.0369 5.50523 61.0487 4.68813C61.0557 4.22668 60.9473 3.87328 60.3745 3.84627C60.2425 3.83951 60.0939 3.82601 60.0892 3.66844C60.0798 3.4636 60.259 3.4636 60.4075 3.4636C61.3481 3.46135 62.2886 3.46135 63.2292 3.4636C63.3777 3.4636 63.5569 3.46585 63.5451 3.67069C63.5357 3.82826 63.3848 3.84402 63.2551 3.84402C62.6823 3.85077 62.5479 4.17941 62.5503 4.65437C62.5597 6.28632 62.5597 7.91828 62.5503 9.55248C62.5479 10.0567 62.7012 10.3921 63.2952 10.3989C63.4249 10.4011 63.5687 10.4101 63.5427 10.5902C63.5262 10.7185 63.406 10.7297 63.2976 10.732C62.3146 10.7342 61.3315 10.7342 60.3485 10.732C60.2118 10.732 60.0822 10.7095 60.0892 10.5407C60.0939 10.3989 60.2212 10.4034 60.325 10.3989C60.919 10.3718 61.0557 10.0139 61.0487 9.52322C61.0369 8.72863 61.0463 7.93178 61.0463 7.13719Z" fill="white"/>
<path d="M36.2682 3.51969C36.1668 3.69527 36.0843 3.8866 35.9594 4.04867C34.545 5.85395 32.8972 7.44089 30.9971 8.78247C30.9288 8.82974 30.8533 8.87026 30.7803 8.91302C30.6341 8.99631 30.4526 9.12237 30.3159 9.00081C30.1344 8.84099 30.3041 8.65416 30.4078 8.5146C31.8623 6.55175 33.6138 4.86803 35.6765 3.48593C35.8226 3.38689 35.9853 3.24282 36.1951 3.34637C36.2352 3.36438 36.2399 3.44766 36.2682 3.51969Z" fill="white"/>
</svg>
